<?xml version="1.0" encoding="UTF-8"?>
<svg version="1.1" xmlns="http://www.w3.org/2000/svg" width="459" height="459">
<path d="M0 0 C0.91007812 0.00064453 1.82015625 0.00128906 2.7578125 0.00195312 C9.46851504 0.04675752 9.46851504 0.04675752 11.75 1.1875 C11.19854729 6.42630078 10.32077907 11.16100697 8.75 16.1875 C7.55503906 16.24357422 7.55503906 16.24357422 6.3359375 16.30078125 C-1.93623015 16.67709428 -1.93623015 16.67709428 -9.25 20.1875 C-14.01005835 25.80826072 -15.57393348 30.99267958 -17.0625 38.125 C-17.784375 41.445625 -18.50625 44.76625 -19.25 48.1875 C-11.33 48.5175 -3.41 48.8475 4.75 49.1875 C1.875 63.0625 1.875 63.0625 0.75 64.1875 C-1.03071246 64.27476223 -2.8148314 64.29449041 -4.59765625 64.28515625 C-5.67724609 64.28193359 -6.75683594 64.27871094 -7.86914062 64.27539062 C-9.00544922 64.26701172 -10.14175781 64.25863281 -11.3125 64.25 C-12.45267578 64.24548828 -13.59285156 64.24097656 -14.76757812 64.23632812 C-17.59510351 64.22449747 -20.4225264 64.2080141 -23.25 64.1875 C-23.34821045 65.32775635 -23.4464209 66.4680127 -23.54760742 67.64282227 C-24.38583959 75.14005466 -25.99805701 82.51353305 -27.48828125 89.90234375 C-27.81363935 91.52460933 -28.13893011 93.14688843 -28.4641571 94.7691803 C-29.14467256 98.15782821 -29.82857182 101.54577407 -30.5144043 104.93334961 C-31.38757216 109.24950553 -32.24831715 113.56803729 -33.10601521 117.88729 C-33.77302991 121.23542763 -34.44870219 124.58177654 -35.12669945 127.92770576 C-35.44751755 129.51810132 -35.76525861 131.10912113 -36.07970619 132.7007885 C-38.7823969 146.35225226 -41.52286635 157.56825064 -52.25 167.1875 C-57.09162642 170.36219968 -62.01076885 172.312164 -67.8125 172.3203125 C-68.69164062 172.32160156 -69.57078125 172.32289063 -70.4765625 172.32421875 C-71.39179688 172.32035156 -72.30703125 172.31648437 -73.25 172.3125 C-74.16523438 172.31636719 -75.08046875 172.32023438 -76.0234375 172.32421875 C-77.34214844 172.32228516 -77.34214844 172.32228516 -78.6875 172.3203125 C-79.49058594 172.31918457 -80.29367188 172.31805664 -81.12109375 172.31689453 C-83.25 172.1875 -83.25 172.1875 -86.25 171.1875 C-85.96459486 169.62384416 -85.67136502 168.06161566 -85.375 166.5 C-85.21257812 165.62988281 -85.05015625 164.75976562 -84.8828125 163.86328125 C-84.24419952 161.16297329 -83.34215515 158.73433238 -82.25 156.1875 C-81.198125 156.14882813 -81.198125 156.14882813 -80.125 156.109375 C-73.76477454 155.72914413 -68.39091717 155.15636612 -63.25 151.1875 C-57.31630924 143.89542074 -56.23024093 134.20969671 -54.515625 125.26171875 C-54.19023265 123.62479329 -53.86344671 121.98814429 -53.53533936 120.35176086 C-52.6805504 116.07011777 -51.84399374 111.78511735 -51.01153564 107.49908447 C-50.16023199 103.13205214 -49.29257312 98.76827671 -48.42578125 94.40429688 C-47.45251104 89.5013373 -46.4808435 84.59811732 -45.52203369 79.69230652 C-45.37635452 78.94801392 -45.23067535 78.20372131 -45.08058167 77.43687439 C-44.68826423 75.43050233 -44.29712188 73.4239006 -43.90606689 71.4172821 C-43.41391 68.99442013 -42.84963119 66.58602475 -42.25 64.1875 C-49.18 64.1875 -56.11 64.1875 -63.25 64.1875 C-62.59 59.2375 -61.93 54.2875 -61.25 49.1875 C-53.99 48.8575 -46.73 48.5275 -39.25 48.1875 C-38.77820313 45.74537109 -38.77820313 45.74537109 -38.296875 43.25390625 C-37.86513634 41.08582731 -37.4328136 38.91786461 -37 36.75 C-36.79503906 35.68072266 -36.59007812 34.61144531 -36.37890625 33.50976562 C-34.10613225 22.24920354 -30.56921947 11.65231856 -20.8125 4.875 C-13.99651627 0.42449184 -7.93243484 -0.1085852 0 0 Z " fill="#0093E1" transform="translate(222.25,142.8125)"/>
<path d="M0 0 C2.55843574 1.81693133 4.36686765 3.791217 6.03515625 6.4453125 C6.48890625 5.7234375 6.94265625 5.0015625 7.41015625 4.2578125 C11.95032476 -0.60665376 16.85761349 -3.13725266 23.484375 -4.0078125 C31.64153395 -4.25473191 38.50963144 -3.49209345 44.80859375 1.98828125 C51.83532638 9.47774994 52.46978625 17.55433187 52.328125 27.3828125 C52.32388016 28.50349121 52.31963531 29.62416992 52.31526184 30.77880859 C52.29855936 34.33456124 52.26092193 37.88973309 52.22265625 41.4453125 C52.20759856 43.86587719 52.19391205 46.28645083 52.18164062 48.70703125 C52.14868331 54.62001315 52.09695866 60.53256458 52.03515625 66.4453125 C46.42515625 66.4453125 40.81515625 66.4453125 35.03515625 66.4453125 C35.02057373 65.07802002 35.00599121 63.71072754 34.9909668 62.30200195 C34.93294162 57.22328702 34.8557084 52.14501347 34.77270508 47.06665039 C34.7394757 44.86978323 34.71143759 42.6728311 34.6887207 40.47583008 C34.65513871 37.31555007 34.60281991 34.15604729 34.546875 30.99609375 C34.54048508 30.01570633 34.53409515 29.03531891 34.5275116 28.02522278 C34.39317897 21.23637395 34.39317897 21.23637395 31.03515625 15.4453125 C26.76413374 12.59796416 23.04125965 13.0694549 18.03515625 13.4453125 C15.07538953 13.9404333 15.07538953 13.9404333 13.03515625 15.4453125 C10.27579704 20.2720459 10.68468955 25.59851814 10.62109375 30.99609375 C10.6017276 32.01003708 10.58236145 33.02398041 10.56240845 34.06864929 C10.50276199 37.29828553 10.45628674 40.5279577 10.41015625 43.7578125 C10.37196276 45.95118718 10.33291023 48.14454708 10.29296875 50.33789062 C10.19707257 55.70691083 10.11298611 61.07600124 10.03515625 66.4453125 C4.09515625 66.4453125 -1.84484375 66.4453125 -7.96484375 66.4453125 C-7.99457275 64.3410791 -7.99457275 64.3410791 -8.02490234 62.19433594 C-8.10096063 56.99086522 -8.189678 51.78767406 -8.28222656 46.58447266 C-8.32051532 44.33225014 -8.35536836 42.0799665 -8.38671875 39.82763672 C-8.43237112 36.59059803 -8.4903659 33.35398014 -8.55078125 30.1171875 C-8.56233246 29.10976501 -8.57388367 28.10234253 -8.58578491 27.06439209 C-8.6056546 26.12371887 -8.62552429 25.18304565 -8.64599609 24.21386719 C-8.65931976 23.38779968 -8.67264343 22.56173218 -8.68637085 21.71063232 C-8.99786768 19.17666961 -9.59226928 17.59305664 -10.96484375 15.4453125 C-14.29386058 13.22596795 -15.45278012 13.17401352 -19.33984375 13.1953125 C-20.27570312 13.19015625 -21.2115625 13.185 -22.17578125 13.1796875 C-25.26650973 13.47404259 -27.28993755 13.84588405 -29.96484375 15.4453125 C-32.41633156 20.78904117 -32.30906969 26.11120092 -32.37890625 31.875 C-32.3982724 32.86533234 -32.41763855 33.85566467 -32.43759155 34.87600708 C-32.49713928 38.0240226 -32.54367345 41.17207518 -32.58984375 44.3203125 C-32.62804635 46.46095302 -32.6670994 48.60157854 -32.70703125 50.7421875 C-32.80282048 55.97644 -32.88694303 61.21076444 -32.96484375 66.4453125 C-38.57484375 66.4453125 -44.18484375 66.4453125 -49.96484375 66.4453125 C-49.96484375 44.0053125 -49.96484375 21.5653125 -49.96484375 -1.5546875 C-44.68484375 -1.5546875 -39.40484375 -1.5546875 -33.96484375 -1.5546875 C-33.63484375 0.0953125 -33.30484375 1.7453125 -32.96484375 3.4453125 C-31.94390625 2.548125 -31.94390625 2.548125 -30.90234375 1.6328125 C-21.43830924 -5.41487277 -10.30579705 -5.86508775 0 0 Z " fill="#000000" transform="translate(55.96484375,210.5546875)"/>
<path d="M0 0 C6.27 0 12.54 0 19 0 C20.9163471 13.96195748 21.99931249 27.94532776 23 42 C23.44802979 41.15405273 23.89605957 40.30810547 24.35766602 39.43652344 C26.05307821 36.23694867 27.75179637 33.03913832 29.45141602 29.84179688 C30.18048048 28.46921407 30.90869931 27.09618169 31.63598633 25.72265625 C33.3929531 22.40515378 35.16190117 19.09552448 36.95898438 15.79956055 C38.29276792 13.34941919 39.55227339 10.88101811 40.75976562 8.36645508 C44.75200855 0.53208405 44.75200855 0.53208405 48.21606445 -0.94482422 C50.71533713 -1.22134826 52.8809539 -1.11364495 55.375 -0.8125 C56.19355469 -0.76673828 57.01210938 -0.72097656 57.85546875 -0.67382812 C63.70965506 -0.29034494 63.70965506 -0.29034494 65 1 C65.43315656 3.61052822 65.81189039 6.20941169 66.15625 8.83203125 C66.2634436 9.62018723 66.37063721 10.4083432 66.4810791 11.22038269 C66.82470637 13.75056834 67.16272005 16.28146103 67.5 18.8125 C67.83795321 21.33272715 68.17713452 23.85277204 68.5189209 26.3724823 C68.73168586 27.94256338 68.94214111 29.51295958 69.15002441 31.08369446 C69.60428691 34.44942892 70.13517338 37.71687558 71 41 C77.87448398 27.43300367 84.44427891 13.72330947 91 0 C96.94 0 102.88 0 109 0 C107.51110512 4.46668464 106.01491491 8.21419387 103.92724609 12.37255859 C103.62459335 12.97815613 103.32194061 13.58375366 103.01011658 14.20770264 C102.01834153 16.18987005 101.02094593 18.16915007 100.0234375 20.1484375 C99.33091831 21.52974198 98.63875439 22.91122463 97.94692993 24.2928772 C96.1322418 27.91464672 94.31276015 31.53398701 92.49224854 35.15283203 C90.63253993 38.85172692 88.77740411 42.5529135 86.921875 46.25390625 C83.28570516 53.50484826 79.64404423 60.75301216 76 68 C70.06 68 64.12 68 58 68 C55.89217436 57.14469795 54.04698613 46.27273158 52.35839844 35.34399414 C52.19629883 34.30621826 52.03419922 33.26844238 51.8671875 32.19921875 C51.72394043 31.26940186 51.58069336 30.33958496 51.43310547 29.3815918 C51.03327999 26.86419724 51.03327999 26.86419724 50 24 C49.43454468 25.10118164 49.43454468 25.10118164 48.85766602 26.22460938 C36.13911768 50.9608209 36.13911768 50.9608209 30.6875 60.625 C30.32148682 61.27404297 29.95547363 61.92308594 29.57836914 62.59179688 C27.14667054 66.85332946 27.14667054 66.85332946 26 68 C24.65732587 68.08631874 23.31025678 68.10706473 21.96484375 68.09765625 C21.15595703 68.09443359 20.34707031 68.09121094 19.51367188 68.08789062 C18.66353516 68.07951172 17.81339844 68.07113281 16.9375 68.0625 C16.08349609 68.05798828 15.22949219 68.05347656 14.34960938 68.04882812 C12.23304337 68.03700373 10.11651315 68.01906769 8 68 C5.95168662 52.33962334 3.93364133 36.67565733 2.01745605 20.99850464 C1.8396475 19.54521792 1.66102247 18.09203085 1.48156738 16.63894653 C1.2300327 14.59943411 0.98172413 12.55955499 0.734375 10.51953125 C0.52119629 8.77313354 0.52119629 8.77313354 0.30371094 6.99145508 C0 4 0 4 0 0 Z " fill="#0093E1" transform="translate(344,209)"/>
<path d="M0 0 C5.94 0 11.88 0 18 0 C18 33.33 18 66.66 18 101 C12.06 101 6.12 101 0 101 C0 67.67 0 34.34 0 0 Z " fill="#000000" transform="translate(126,176)"/>
<path d="M0 0 C1.58206057 0.00667536 3.16410534 0.0186375 4.74609375 0.03515625 C5.55240234 0.03966797 6.35871094 0.04417969 7.18945312 0.04882812 C9.18753131 0.06065107 11.18557158 0.07858711 13.18359375 0.09765625 C12.4854784 8.67012855 10.59006058 16.9369009 8.7265625 25.3125 C8.37844814 26.89310504 8.0307438 28.47380044 7.6834259 30.05458069 C6.77011068 34.20613016 5.8511993 38.35642123 4.93109131 42.50646973 C4.00856308 46.67217487 3.0914527 50.83907186 2.17382812 55.00585938 C0.66036573 61.87409758 -0.85370171 68.74220562 -2.3784914 75.60793972 C-3.22991722 79.44191854 -4.07461629 83.27723702 -4.91098022 87.11453247 C-5.09209445 87.94099305 -5.27320868 88.76745363 -5.45981121 89.61895847 C-5.80950233 91.21482479 -6.15715537 92.81113943 -6.50250721 94.4079504 C-7.70366035 99.87216445 -7.70366035 99.87216445 -8.81640625 102.09765625 C-14.42640625 102.09765625 -20.03640625 102.09765625 -25.81640625 102.09765625 C-25.23225136 95.11017448 -24.17897263 88.45781632 -22.62890625 81.625 C-22.41031952 80.63922974 -22.19173279 79.65345947 -21.96652222 78.63781738 C-21.25524844 75.43569268 -20.53595572 72.23543049 -19.81640625 69.03515625 C-19.32121682 66.81465943 -18.826594 64.59403618 -18.33251953 62.37329102 C-17.57663643 58.97651197 -16.82024187 55.57985435 -16.06155396 52.18370056 C-14.39078061 44.70179407 -12.74586528 37.21467958 -11.12109375 29.72265625 C-10.70573691 27.81127761 -10.29037253 25.89990062 -9.875 23.98852539 C-9.28518409 21.27347636 -8.69638056 18.55822909 -8.11083984 15.84225464 C-7.57591057 13.36285165 -7.03651216 10.88446135 -6.49609375 8.40625 C-6.33930145 7.67329712 -6.18250916 6.94034424 -6.02096558 6.18518066 C-4.69090074 0.12003328 -4.69090074 0.12003328 0 0 Z " fill="#0093E1" transform="translate(246.81640625,174.90234375)"/>
<path d="M0 0 C2.12062021 1.50345941 2.82745842 2.87890161 3.78515625 5.265625 C2.83253906 5.94109375 1.87992187 6.6165625 0.8984375 7.3125 C-0.36854425 8.2134648 -1.63546827 9.11451077 -2.90234375 10.015625 C-3.84110352 10.68078125 -3.84110352 10.68078125 -4.79882812 11.359375 C-7.62274089 13.37011916 -10.36669747 15.39045923 -13.046875 17.59375 C-15.21484375 19.265625 -15.21484375 19.265625 -17.21484375 19.265625 C-17.21484375 16.625625 -17.21484375 13.985625 -17.21484375 11.265625 C-24.65638524 13.3974545 -30.10040669 15.46269296 -34.21484375 22.265625 C-36.46184221 27.1681671 -37.23672504 32.11728552 -35.5390625 37.34765625 C-35.00982918 38.69958401 -34.45570914 40.04217637 -33.87109375 41.37109375 C-33.21484375 43.265625 -33.21484375 43.265625 -33.21484375 47.265625 C-35.40234375 49.1875 -35.40234375 49.1875 -38.21484375 51.015625 C-39.60703125 51.93601562 -39.60703125 51.93601562 -41.02734375 52.875 C-41.74921875 53.33390625 -42.47109375 53.7928125 -43.21484375 54.265625 C-49.36901679 48.51224895 -51.36617849 42.24695934 -51.69189453 33.94580078 C-51.76667714 26.63778951 -51.32938902 20.52688954 -47.21484375 14.265625 C-46.77914063 13.57210937 -46.3434375 12.87859375 -45.89453125 12.1640625 C-41.48240948 5.72670451 -35.3304834 0.2270098 -27.8046875 -2.26171875 C-18.49479907 -3.96080849 -8.73767974 -3.77683584 0 0 Z " fill="#42C8EC" transform="translate(314.21484375,209.734375)"/>
<path d="M0 0 C5.20857318 4.27847083 8.33292023 11.32920231 9 18 C9.8531337 28.45088778 7.303189 37.42138824 0.93359375 45.77734375 C-5.84175914 53.56557767 -14.30650145 56.92339407 -24.484375 58.34765625 C-32.05435157 58.65636097 -39.80109315 56.33923479 -46 52 C-44.6149693 47.84490791 -41.65995008 46.37313171 -38.1875 44 C-36.93077459 43.12530882 -35.67425875 42.25031643 -34.41796875 41.375 C-33.82419434 40.96636719 -33.23041992 40.55773437 -32.61865234 40.13671875 C-31.27549468 39.19346957 -29.97003775 38.19680255 -28.67578125 37.1875 C-27 36 -27 36 -25 36 C-25 38.64 -25 41.28 -25 44 C-17.21037419 41.15640844 -10.89710466 38.79420931 -7 31 C-5.21494592 24.9582785 -5.01950223 19.30130623 -8.0625 13.6875 C-8.44535156 13.07261719 -8.82820313 12.45773438 -9.22265625 11.82421875 C-10 10 -10 10 -9.90625 7.97265625 C-8.64952575 5.23711424 -6.97515974 4.32263421 -4.4375 2.75 C-3.61121094 2.22921875 -2.78492188 1.7084375 -1.93359375 1.171875 C-0.97646484 0.59179688 -0.97646484 0.59179688 0 0 Z " fill="#0093E1" transform="translate(324,219)"/>
</svg>
